<?xml version="1.0" encoding="utf-8"?>
<!-- Generator: Adobe Illustrator 16.0.3, SVG Export Plug-In . SVG Version: 6.00 Build 0)  -->
<!DOCTYPE svg PUBLIC "-//W3C//DTD SVG 1.1//EN" "http://www.w3.org/Graphics/SVG/1.1/DTD/svg11.dtd">
<svg version="1.1" id="Livello_1" xmlns="http://www.w3.org/2000/svg" xmlns:xlink="http://www.w3.org/1999/xlink" x="0px" y="0px"
	 width="300px" height="100px" viewBox="0 0 300 100" enable-background="new 0 0 300 100" xml:space="preserve">
<polygon fill="#FDC94E" points="179.772,88.254 44.683,88.254 47.999,72.313 183.088,71.365 "/>
<path fill="#1B4048" d="M91.405,57.529l-2.879,9.573H58.869c1.457-3.677,2.59-6.868,3.4-9.573
	c4.439-14.684,7.596-25.575,9.469-32.674h12.8c-4.718,10.359-8.395,21.297-11.03,32.813h3.468
	C80.652,57.668,85.462,57.622,91.405,57.529"/>
<path fill="#1B4048" d="M117.713,44.961c0,5.802-1.765,11.001-5.294,15.599c-3.822,4.992-8.557,7.488-14.204,7.488
	c-3.685,0-6.56-1.246-8.626-3.744c-1.928-2.307-2.892-5.346-2.892-9.115c0-5.252,1.962-10.287,5.888-15.108
	c4.149-5.079,8.789-7.619,13.919-7.619C113.978,32.463,117.713,36.63,117.713,44.961 M110.276,46.434
	c0-3.874-1.713-5.811-5.14-5.811c-1.532,0-3.116,0.715-4.751,2.143c-3.375,2.928-5.062,6.404-5.062,10.435
	c0,1.635,0.422,2.951,1.266,3.951c0.878,1.05,2.126,1.574,3.745,1.574c2.616,0,4.966-1.42,7.05-4.262
	C109.312,51.83,110.276,49.155,110.276,46.434"/>
<path fill="#1B4048" d="M169.11,28.413c-7.952,11.783-14.22,24.336-18.8,37.659h-11.812c1.125-7.165,1.718-14.635,1.776-22.412
	c-3.809,7.777-7.263,15.247-10.362,22.412h-13.5c2.131-5.428,3.197-11.2,3.197-17.32c0-0.77-0.029-1.726-0.088-2.872
	c-0.198-3.947-0.484-6.917-0.859-8.912c-0.552-2.959-1.479-5.782-2.782-8.467c-2.152-4.44-4.697-6.661-7.639-6.661
	c-3,0-4.934,0.612-5.803,1.835c2.882-5.762,6.977-8.645,12.286-8.645c5.27,0,9.04,3.553,11.31,10.659
	c1.5,4.678,2.25,10.391,2.25,17.141c0,2.506-0.099,5.181-0.295,8.023c3.868-7.559,6.878-15.04,9.029-22.441h11.339l-0.029,22.441
	c3.828-7.579,6.77-15.059,8.822-22.441H169.11z"/>
<path fill="#1B4048" d="M216.98,71.135c-5.781,5.781-10.637,8.672-14.568,8.672c-3.907,0-7.1-1.236-9.572-3.711
	c-2.846-2.844-6.604-10.381-11.273-22.615l-3.607,11.828h-13.666c5.78-13.227,10.07-27.31,12.867-42.247h16.13
	c7.169,0,11.644,2.323,13.423,6.971c0.926,2.428,1.388,4.799,1.388,7.111c0,3.815-1.323,7.354-3.971,10.614
	c-2.649,3.261-5.833,5.249-9.556,5.967c3.514,7.885,6.602,12.81,9.261,14.775c3.005,2.221,5.733,3.33,8.186,3.33
	C214.402,71.83,216.057,71.6,216.98,71.135 M195.578,36.173c0-2.729-1.744-4.093-5.236-4.093c-0.693,0-1.445,0.046-2.255,0.138
	l-3.469,11.273c1.526,0.509,2.89,0.763,4.094,0.763c2.149,0,3.86-0.832,5.132-2.497C195.002,40.254,195.578,38.393,195.578,36.173"
	/>
<path fill="#1B4048" d="M213.191,45.815l-6.151,20.257h-7.757l6.151-20.257H213.191z M215.863,41.283
	c0,1.064-0.632,1.919-1.896,2.567c-1.019,0.524-2.12,0.786-3.308,0.786c-1.201,0-2.328-0.262-3.377-0.786
	c-1.264-0.632-1.895-1.496-1.895-2.59s0.677-1.958,2.033-2.589c1.081-0.509,2.236-0.763,3.47-0.763c1.219,0,2.298,0.254,3.237,0.763
	C215.285,39.301,215.863,40.173,215.863,41.283"/>
<path fill="#1B4048" d="M237.275,37.837c-3.961,8.665-6.845,18.053-8.649,28.166h-8.485l0.416-1.041
	c-1.449,0.786-2.936,1.18-4.463,1.18c-2.081,0-3.707-0.718-4.879-2.149c-1.094-1.327-1.642-3.054-1.642-5.182
	c0-3.236,1.063-6.204,3.19-8.902c2.282-2.883,4.988-4.324,8.116-4.324c2.344,0,4.04,0.762,5.088,2.289
	c0.878-3.068,1.804-6.413,2.774-10.036H237.275z M223.656,53.184c0-1.613-0.794-2.42-2.382-2.42c-1.127,0-2.121,0.477-2.983,1.43
	c-0.863,0.952-1.296,1.998-1.296,3.135c0,1.689,0.841,2.535,2.521,2.535c1.187,0,2.189-0.492,3.005-1.477
	C223.277,55.465,223.656,54.398,223.656,53.184"/>
<path fill="#1B4048" d="M249.813,52.984c0,0.909-0.084,2.157-0.254,3.745h-13.342c-0.125,0.354-0.188,0.764-0.188,1.226
	c0,0.725,0.35,1.318,1.043,1.781c0.615,0.416,1.303,0.623,2.059,0.623c1.355,0,2.598-0.662,3.723-1.988h5.826
	c-1.002,2.422-2.512,4.371-4.531,5.851c-2.098,1.543-4.426,2.313-6.984,2.313c-2.266,0-4.074-0.677-5.424-2.034
	c-1.348-1.357-2.021-3.176-2.021-5.457c0-3.377,1.309-6.452,3.932-9.227c2.619-2.775,5.609-4.162,8.971-4.162
	C247.414,45.654,249.813,48.097,249.813,52.984 M244.609,53.516c-0.139-1.711-1.078-2.567-2.82-2.567
	c-1.449,0-2.854,0.856-4.209,2.567H244.609z"/>
<path fill="#1B4048" d="M268.789,50.973c-0.893-0.447-2.465-0.671-4.715-0.671c-1.773,0-3.26,0.508-4.463,1.526
	c-1.322,1.125-3.143,5.75-5.453,13.874l-0.023,0.002l-0.111,0.368h-7.758l6.152-20.257h3.422c0.939-0.4,2.043-0.602,3.305-0.602
	C261.721,45.214,264.936,47.133,268.789,50.973"/>
<path fill="#1B4048" d="M52.922,82.113l0.277-0.719l0.651-1.607l2.319-5.344h2.326v5.48c0,0.721-0.06,1.451-0.18,2.189
	c0.046-0.129,0.353-0.928,0.921-2.396l2.098-5.273h2.679l-4.397,10.121h-3.191v-4.293c0-0.715,0.03-1.463,0.09-2.244
	c-0.152,0.615-0.425,1.42-0.816,2.418l-1.751,4.119h-3.006l-0.339-10.121h2.563l-0.07,5.074
	C53.068,80.748,53.01,81.615,52.922,82.113"/>
<path fill="#1B4048" d="M68.16,82.668h-3.102l-0.866,1.896h-2.81l5.15-10.121h3.482l0.851,10.121h-2.638L68.16,82.668z
	 M66.048,80.506h2.028l-0.118-2.934l-0.014-0.596c0-0.346,0.009-0.65,0.028-0.908c-0.111,0.396-0.252,0.781-0.422,1.15
	L66.048,80.506z"/>
<path fill="#1B4048" d="M78.048,74.443h2.866l-5.019,10.121h-3.018l-0.72-10.121h2.645l0.187,5.545v0.354
	c0,0.664-0.037,1.256-0.11,1.771h0.055c0.064-0.295,0.167-0.658,0.308-1.092c0.14-0.43,0.268-0.766,0.384-1.006L78.048,74.443z"/>
<polygon fill="#1B4048" points="85.561,84.564 79.551,84.564 81.69,74.443 87.7,74.443 87.25,76.637 83.948,76.637 83.622,78.23 
	86.696,78.23 86.198,80.424 83.124,80.424 82.729,82.334 86.032,82.334 "/>
<path fill="#1B4048" d="M93.732,81.455c0,1.025-0.34,1.822-1.018,2.393c-0.679,0.57-1.625,0.855-2.839,0.855
	c-0.507,0-0.987-0.057-1.439-0.17c-0.453-0.113-0.843-0.279-1.17-0.494v-2.424c0.388,0.244,0.832,0.449,1.333,0.615
	c0.5,0.166,0.953,0.25,1.359,0.25c0.341,0,0.6-0.072,0.776-0.215c0.175-0.143,0.263-0.346,0.263-0.609
	c0-0.125-0.028-0.242-0.083-0.35c-0.055-0.109-0.134-0.217-0.235-0.326c-0.102-0.107-0.375-0.348-0.817-0.715
	c-0.541-0.434-0.933-0.877-1.177-1.33c-0.245-0.451-0.367-0.949-0.367-1.488c0-0.604,0.151-1.15,0.454-1.631
	c0.302-0.482,0.729-0.855,1.28-1.121c0.552-0.266,1.169-0.398,1.853-0.398c1.103,0,2.095,0.248,2.977,0.74l-0.935,2.057
	c-0.789-0.406-1.461-0.609-2.015-0.609c-0.295,0-0.523,0.064-0.683,0.193c-0.159,0.129-0.239,0.32-0.239,0.566
	c0,0.229,0.078,0.438,0.232,0.637c0.154,0.195,0.449,0.457,0.882,0.785c0.544,0.4,0.949,0.824,1.211,1.266
	C93.601,80.375,93.732,80.883,93.732,81.455"/>
<path fill="#1B4048" d="M97.766,81.898c0-0.734,0.202-1.344,0.605-1.83c0.404-0.488,1.03-0.869,1.879-1.146
	c-0.17-0.213-0.31-0.486-0.418-0.82c-0.108-0.336-0.163-0.639-0.163-0.91c0-0.908,0.291-1.621,0.872-2.137
	c0.582-0.514,1.401-0.771,2.458-0.771c0.872,0,1.57,0.203,2.094,0.609s0.786,0.951,0.786,1.635c0,0.598-0.185,1.137-0.554,1.613
	c-0.37,0.475-0.974,0.928-1.814,1.361l0.894,1.289c0.165-0.166,0.339-0.432,0.522-0.793c0.182-0.363,0.329-0.736,0.439-1.119h2.651
	c-0.212,0.744-0.509,1.449-0.89,2.117c-0.38,0.666-0.818,1.252-1.312,1.754l1.322,1.814h-3.06l-0.297-0.422
	c-0.716,0.373-1.521,0.561-2.417,0.561c-1.125,0-2.008-0.246-2.644-0.738C98.084,83.475,97.766,82.785,97.766,81.898
	 M101.664,82.576c0.355,0,0.674-0.059,0.956-0.18l-1.336-1.932c-0.54,0.24-0.81,0.627-0.81,1.164c0,0.285,0.109,0.516,0.328,0.688
	C101.021,82.49,101.308,82.576,101.664,82.576 M102.869,76.111c-0.227,0-0.41,0.08-0.551,0.238c-0.141,0.158-0.21,0.377-0.21,0.654
	c0,0.352,0.118,0.684,0.353,0.996c0.332-0.141,0.578-0.326,0.737-0.549c0.159-0.225,0.239-0.473,0.239-0.744
	c0-0.162-0.051-0.303-0.152-0.42C103.182,76.17,103.044,76.111,102.869,76.111"/>
<path fill="#1B4048" d="M117.176,76.539c-0.499,0-0.949,0.18-1.351,0.541s-0.716,0.855-0.945,1.488
	c-0.228,0.633-0.342,1.316-0.342,2.057c0,0.619,0.128,1.08,0.387,1.385c0.258,0.305,0.63,0.455,1.115,0.455
	c0.383,0,0.771-0.047,1.163-0.141s0.854-0.256,1.385-0.48v2.236c-0.937,0.414-1.952,0.623-3.046,0.623
	c-1.2,0-2.125-0.344-2.773-1.029c-0.648-0.686-0.972-1.654-0.972-2.91c0-1.229,0.234-2.355,0.702-3.379s1.105-1.797,1.912-2.32
	c0.805-0.521,1.727-0.781,2.766-0.781c1.223,0,2.333,0.303,3.33,0.906l-1.024,2.113c-0.429-0.256-0.824-0.445-1.184-0.572
	C117.938,76.604,117.563,76.539,117.176,76.539"/>
<path fill="#1B4048" d="M125.606,74.283c1.199,0,2.133,0.344,2.8,1.027c0.667,0.686,1,1.643,1,2.871c0,1.227-0.229,2.35-0.689,3.367
	c-0.458,1.018-1.092,1.797-1.9,2.34c-0.807,0.543-1.744,0.814-2.811,0.814c-1.242,0-2.2-0.346-2.876-1.033
	c-0.677-0.688-1.015-1.643-1.015-2.865s0.238-2.348,0.713-3.371c0.475-1.025,1.122-1.807,1.942-2.344
	C123.589,74.551,124.535,74.283,125.606,74.283 M126.671,78.207c0-0.523-0.11-0.938-0.332-1.234
	c-0.222-0.299-0.542-0.445-0.962-0.445c-0.457,0-0.877,0.191-1.261,0.58s-0.688,0.92-0.917,1.6
	c-0.228,0.678-0.343,1.373-0.343,2.084c0,1.117,0.462,1.674,1.385,1.674c0.438,0,0.846-0.191,1.222-0.572
	c0.376-0.385,0.671-0.9,0.886-1.551C126.564,79.689,126.671,78.98,126.671,78.207"/>
<path fill="#1B4048" d="M138.516,84.564h-3.15l-2.001-7.117h-0.055c-0.134,1.344-0.265,2.307-0.394,2.895l-0.894,4.223h-2.41
	l2.14-10.121h3.15l1.98,6.805h0.063c0.134-1.09,0.266-1.945,0.396-2.57l0.906-4.234h2.409L138.516,84.564z"/>
<path fill="#1B4048" d="M146.233,76.539c-0.499,0-0.948,0.18-1.35,0.541s-0.717,0.855-0.945,1.488s-0.343,1.316-0.343,2.057
	c0,0.619,0.129,1.08,0.389,1.385c0.258,0.305,0.629,0.455,1.114,0.455c0.383,0,0.771-0.047,1.163-0.141s0.854-0.256,1.385-0.48
	v2.236c-0.938,0.414-1.953,0.623-3.047,0.623c-1.2,0-2.124-0.344-2.772-1.029c-0.649-0.686-0.974-1.654-0.974-2.91
	c0-1.229,0.235-2.355,0.703-3.379c0.469-1.023,1.106-1.797,1.911-2.32c0.807-0.521,1.729-0.781,2.767-0.781
	c1.224,0,2.333,0.303,3.33,0.906l-1.024,2.113c-0.43-0.256-0.824-0.445-1.184-0.572C146.995,76.604,146.621,76.539,146.233,76.539"
	/>
<path fill="#1B4048" d="M152.299,80.881l-0.783,3.684h-2.707l2.14-10.121h2.68c1.163,0,2.054,0.23,2.672,0.691
	s0.927,1.156,0.927,2.084c0,0.719-0.163,1.348-0.49,1.883c-0.329,0.535-0.816,0.945-1.461,1.227l1.551,3.572l0.277,0.664h-2.95
	l-1.35-3.684H152.299z M152.734,78.824h0.354c0.438,0,0.786-0.125,1.045-0.377c0.258-0.252,0.388-0.604,0.388-1.055
	c0-0.287-0.079-0.506-0.238-0.654c-0.159-0.152-0.392-0.227-0.696-0.227h-0.367L152.734,78.824z"/>
<polygon fill="#1B4048" points="163.674,84.564 157.665,84.564 159.805,74.443 165.813,74.443 165.363,76.637 162.062,76.637 
	161.736,78.23 164.811,78.23 164.312,80.424 161.238,80.424 160.843,82.334 164.146,82.334 "/>
<polygon fill="#1B4048" points="169.313,84.564 166.604,84.564 168.246,76.678 166.051,76.678 166.529,74.443 173.646,74.443 
	173.154,76.678 170.953,76.678 "/>
<polygon fill="#1B4048" points="178.393,84.564 172.385,84.564 174.522,74.443 180.531,74.443 180.082,76.637 176.779,76.637 
	176.455,78.23 179.529,78.23 179.029,80.424 175.955,80.424 175.561,82.334 178.863,82.334 "/>
<path fill="#0092C3" d="M202.412,81.859c-4.453,0-8.161-1.451-11.024-4.313c-2.613-2.613-5.753-8.457-9.574-17.838l-2.335,7.652
	h-18.322l1.256-2.875c5.691-13.023,9.975-27.088,12.73-41.804l0.314-1.675h17.833c8.071,0,13.233,2.79,15.341,8.292
	c0.844,2.218,1.342,4.429,1.482,6.584c0.259-0.019,0.52-0.03,0.778-0.03c1.558,0,2.975,0.34,4.214,1.011
	c1.814,0.992,2.811,2.56,2.811,4.419c0,0.825-0.211,1.878-1.033,2.866c1.125-0.365,2.303-0.55,3.527-0.55
	c1.502,0,2.828,0.266,3.959,0.791c0.629-2.24,1.271-4.595,1.92-7.016l0.41-1.521h13.303l-1.33,2.907
	c-0.975,2.131-1.896,4.354-2.754,6.631c2.07-1.189,4.316-1.792,6.703-1.792c3.293,0,5.814,1.058,7.389,3.08l0.885-2.917h4.557
	c1.094-0.399,2.336-0.601,3.695-0.601c3.17,0,6.799,2.08,11.092,6.355l0.428,0.428l-2.252,3.136l-0.543-0.271
	c-0.213-0.107-1.115-0.455-3.797-0.455c-1.283,0-2.309,0.342-3.135,1.041c-0.252,0.213-1.668,1.84-4.809,12.869l-0.387,1.365
	l-0.051,0.005l-0.148,0.491h-12.047l0.393-1.295c-2.063,1.167-4.318,1.757-6.727,1.757c-2.822,0-5.137-0.888-6.879-2.64
	c-0.006-0.006-0.01-0.012-0.018-0.018c-0.029,0.167-0.059,0.335-0.09,0.503l-0.303,1.692h-12.527
	c-0.57,0.092-1.148,0.139-1.724,0.139c-2.614,0-4.728-0.904-6.288-2.689l-0.773,2.551h-1.596c1.855,1.094,3.555,1.651,5.054,1.651
	c2.866,0,3.819-0.364,4.042-0.477l0.541-0.269l2.254,3.129l-0.426,0.426C212.192,78.828,206.952,81.859,202.412,81.859
	 M181.632,55.432l0.748,1.883c4.093,10.295,7.368,16.584,10.013,19.229c2.586,2.586,5.957,3.896,10.02,3.896
	c4.043,0,8.819-2.76,14.586-8.432l-0.877-1.217c-0.905,0.268-2.303,0.406-4.101,0.406c-2.302,0-4.931-1.079-7.81-3.205l-1.737-1.281
	l5.036-0.008l1.34-4.411l0.824,1.354c0.174,0.282,0.369,0.556,0.578,0.811c1.295,1.584,3.103,2.385,5.372,2.385
	c0.651,0,1.308-0.068,1.949-0.203l1.298-0.275l-0.137,0.34h9.953l0.092-0.521c0.119-0.671,0.244-1.341,0.375-2.007l0.324-1.674
	l0.961,1.408c0.248,0.368,0.535,0.717,0.854,1.035c1.465,1.474,3.439,2.221,5.871,2.221c2.686,0,5.16-0.819,7.355-2.434l1.938-1.465
	l-1.043,3.436h9.076l0.123-0.398l0.031-0.003l0.121-0.427c2.234-7.854,4.051-12.543,5.254-13.564
	c1.096-0.927,2.422-1.376,4.055-1.376c1.678,0,2.99,0.132,3.854,0.383l0.877-1.218c-3.82-3.711-6.982-5.518-9.658-5.518
	c-1.238,0-2.352,0.186-3.314,0.555l-0.121,0.046h-3.764l-1.563,5.15l-0.791-1.638c-1.176-2.437-3.523-3.673-6.973-3.673
	c-2.793,0-5.379,0.925-7.684,2.751l-1.934,1.532l0.822-2.325c1.074-3.037,2.27-6,3.555-8.809l0.408-0.895h-10.002l-0.125,0.469
	c-0.732,2.736-1.461,5.391-2.164,7.889l-0.26,0.92l-0.807-0.514c-1.061-0.675-2.412-1.018-4.021-1.018
	c-1.989,0-3.841,0.555-5.506,1.65l-1.641,1.079l1.016-3.343l0.245-0.14c1.309-0.75,1.972-1.753,1.972-2.984
	c0-1.353-0.697-2.421-2.07-3.171c-1.025-0.555-2.217-0.838-3.534-0.838c-0.449,0-0.901,0.035-1.346,0.102l-0.798,0.124l-0.021-0.807
	c-0.057-2.238-0.536-4.556-1.424-6.887c-1.876-4.896-6.59-7.378-14.014-7.378h-16.653l-0.097,0.516
	c-2.775,14.821-7.092,28.989-12.826,42.11l-0.388,0.887h15.101L181.632,55.432z M199.715,62.479l-0.816-1.447
	c-0.982-1.741-2.02-3.791-3.08-6.094l-0.342-0.742l0.783-0.234c2.02-0.604,3.9-1.613,5.592-3.001l1.812-1.487L199.715,62.479z
	 M197.446,55.068c0.642,1.365,1.271,2.631,1.884,3.787l1.678-5.528C199.881,54.047,198.689,54.63,197.446,55.068 M188.712,43.622
	c-0.778,0-1.646-0.117-2.58-0.348l-0.729-0.18l3.168-10.297l0.484-0.036c0.453-0.034,0.885-0.05,1.287-0.05
	c4.127,0,4.604,1.976,4.604,3.461c0,2.096-0.525,3.799-1.606,5.203C192.202,42.865,190.645,43.622,188.712,43.622 M187.209,42.054
	c2.311,0.422,3.855-0.038,5.004-1.543c0.885-1.149,1.313-2.566,1.313-4.338c0-0.813,0-2.041-3.184-2.041
	c-0.223,0-0.457,0.006-0.701,0.018L187.209,42.054z"/>
<path fill="#0092C3" d="M112.92,60.946c-3.93,5.132-8.877,7.735-14.705,7.735c-3.091,0-5.683-0.858-7.703-2.551l-0.826-0.693
	l-0.691,2.297H57.939l0.343-0.864c1.444-3.646,2.582-6.851,3.38-9.521c4.416-14.604,7.601-25.592,9.464-32.656l0.124-0.471H85.52
	l-0.407,0.895c-4.449,9.771-8.017,20.215-10.603,31.043L74.3,57.035h2.676c2.321,0,5.152-0.018,8.416-0.057l0.74-0.008l-0.04-0.739
	c-0.018-0.347-0.027-0.692-0.027-1.042c0-5.376,2.029-10.593,6.029-15.506c4.256-5.211,9.104-7.854,14.41-7.854
	c4.788,0,8.129,1.651,10.016,4.905c-0.227-1.092-0.508-2.168-0.846-3.225c-2.801-2.539-6.479-3.102-9.169-3.102
	c-5.752,0-10.971,2.818-15.512,8.375c-4.212,5.175-6.349,10.694-6.349,16.405c0,0.125,0.001,0.252,0.004,0.377
	c-2.953,0.031-5.531,0.049-7.673,0.049h-0.874c2.547-10.427,6.011-20.485,10.303-29.909l1.322-2.904h-17.57l-0.404,1.529
	c-1.859,7.048-5.039,18.019-9.451,32.611c-0.787,2.633-1.912,5.797-3.341,9.404l-1.113,2.809h34.205l0.388-1.292
	c2.139,1.487,4.749,2.24,7.774,2.24c6.293,0,11.621-2.79,15.832-8.292c1.031-1.344,1.919-2.741,2.673-4.188
	c0.361-1.88,0.6-3.801,0.726-5.752C116.572,55.119,115.063,58.154,112.92,60.946"/>
<path fill="#0092C3" d="M105.137,41.256c-1.367,0-2.826,0.668-4.334,1.985c-3.262,2.83-4.847,6.087-4.847,9.96
	c0,1.494,0.365,2.654,1.114,3.539c0.751,0.898,1.849,1.354,3.264,1.354c2.426,0,4.564-1.31,6.541-4.004
	c1.837-2.511,2.769-5.086,2.769-7.657C109.644,41.792,107.072,41.256,105.137,41.256 M105.729,53.252
	c-1.689,2.303-3.455,3.422-5.395,3.422c-1.002,0-1.692-0.268-2.177-0.848c-0.525-0.621-0.781-1.48-0.781-2.625
	c0-3.437,1.426-6.343,4.359-8.889c1.244-1.085,2.389-1.636,3.402-1.636c1.562,0,3.086,0.29,3.086,3.758
	C108.223,48.696,107.384,50.99,105.729,53.252"/>
<path fill="#0092C3" d="M155.59,26.36l-0.417,1.502c-1.244,4.474-2.849,9.049-4.78,13.646l0.021-15.148h-14.935l-0.431,1.479
	c-1.259,4.333-2.845,8.758-4.728,13.196c-0.125-6.172-0.907-11.538-2.329-15.97c-2.563-8.02-7.025-12.087-13.266-12.087
	c-6.125,0-10.876,3.291-14.123,9.78l-0.293,0.588l3.423,2.055l0.381-0.536c0.333-0.469,1.593-0.971,4.129-0.971
	c2.074,0,4.022,1.852,5.792,5.503c0.644,1.328,1.19,2.704,1.641,4.113c0.833,0.755,1.587,1.687,2.216,2.83
	c-0.553-2.625-1.417-5.167-2.579-7.563c-2.027-4.184-4.405-6.305-7.07-6.305c-1.638,0-3.691,0.202-4.819,1.085l-1.248-0.75
	c2.971-5.581,7.191-8.409,12.55-8.409c5.551,0,9.56,3.734,11.913,11.099c1.512,4.717,2.279,10.549,2.279,17.333
	c0,0.512-0.004,1.033-0.013,1.563l-0.053,3.407l1.411-3.102c2.512-5.524,4.581-11.063,6.149-16.462l0.133-0.456h12.446
	l-0.027,20.449l1.362-3.013c2.58-5.707,4.671-11.417,6.216-16.973l0.129-0.463h13.631l-0.666,0.986
	c-7.887,11.684-14.188,24.304-18.725,37.51l-0.148,0.426H137.76l0.114-0.729c0.809-5.152,1.349-10.561,1.603-16.075l0.162-3.513
	l-1.513,3.174c-2.745,5.757-5.313,11.398-7.632,16.761l-0.166,0.381h-14.842l0.339-0.862c1.699-4.325,2.705-8.931,3.028-13.726
	c-0.503,1.906-1.214,3.744-2.132,5.508c-0.51,2.648-1.246,5.222-2.219,7.699l-1.101,2.803h17.861l0.535-1.238
	c1.867-4.318,3.896-8.815,6.049-13.41c-0.293,4.201-0.754,8.314-1.375,12.277l-0.373,2.371h15.678l0.477-1.387
	c4.498-13.088,10.742-25.596,18.56-37.177l2.161-3.201H155.59z"/>
<path fill="#0092C3" d="M118.979,48.752c0-0.754-0.03-1.709-0.088-2.837c-0.195-3.901-0.481-6.871-0.849-8.828
	c-0.047-0.25-0.1-0.498-0.152-0.746c-0.628-1.143-1.382-2.074-2.215-2.83c0.338,1.056,0.62,2.133,0.846,3.224
	c1.208,2.084,1.825,4.824,1.825,8.227c0,2.395-0.304,4.701-0.899,6.909c-0.125,1.951-0.365,3.871-0.726,5.752
	c0.918-1.764,1.629-3.602,2.132-5.508C118.929,51.004,118.979,49.884,118.979,48.752"/>
</svg>
